<svg width="535" height="502" viewBox="0 0 535 502" fill="none" xmlns="http://www.w3.org/2000/svg">
<rect x="17" width="501" height="501" rx="139" fill="white"/>
<path d="M436.617 289.325C435.952 289.325 435.497 288.8 435.497 288.135V258.49C435.497 257.825 436.022 257.3 436.617 257.3H439.871C440.536 257.3 440.991 257.825 440.991 258.49V260.17C441.446 259.505 443.545 257.055 448.374 257.055C452.118 257.055 454.883 258.525 456.877 261.64C456.877 261.64 459.292 257.125 466.325 257.055C473.393 256.985 477.452 261.15 477.452 269.13V288.1C477.452 288.765 476.928 289.29 476.333 289.29H472.834C472.169 289.29 471.714 288.765 471.714 288.1V269.795C471.714 264.895 469.684 262.165 465.38 262.165C461.251 262.165 459.257 265.28 459.257 271.055V288.1C459.257 288.765 458.732 289.29 458.137 289.29H454.673C454.008 289.29 453.553 288.765 453.553 288.1V269.795C453.553 264.895 451.628 262.165 447.534 262.165C443.195 262.165 441.131 265.28 441.131 271.055V288.1C441.131 288.765 440.606 289.29 440.011 289.29H436.617V289.325ZM415.726 284.53C421.5 284.53 425.804 280.085 425.804 273.26C425.804 266.435 421.5 262.06 415.726 262.06C409.953 262.06 405.579 266.435 405.579 273.26C405.579 280.085 409.953 284.53 415.726 284.53ZM415.726 289.64C406.768 289.64 400.12 282.85 400.12 273.26C400.12 263.775 406.768 256.95 415.726 256.95C424.684 256.95 431.263 263.67 431.263 273.26C431.263 282.815 424.684 289.64 415.726 289.64ZM389.027 289.71C379.16 289.71 372.966 282.885 372.966 273.33C372.966 263.775 379.16 257.02 389.027 257.02C392.002 257.02 394.661 257.615 396.936 258.875C397.321 259.085 397.6 259.54 397.6 259.995V264.51C397.6 265.175 396.796 265.525 396.341 265.035C394.381 263.005 391.757 262.06 388.957 262.06C382.659 262.06 378.81 266.365 378.81 273.26C378.81 280.155 382.659 284.53 388.957 284.53C391.757 284.53 394.416 283.655 396.411 281.625C396.866 281.17 397.67 281.485 397.67 282.15V286.665C397.67 287.12 397.356 287.575 397.006 287.785C394.731 289.045 391.967 289.71 389.027 289.71ZM368.067 289.57C366.073 289.57 364.218 288.03 364.218 285.72C364.218 283.515 366.003 281.87 368.067 281.87C370.132 281.87 371.776 283.41 371.776 285.72C371.776 287.995 370.062 289.57 368.067 289.57ZM340.248 289.71C332.62 289.71 326.252 288.59 321.458 285.93C320.793 285.545 320.548 284.565 320.863 283.865L324.257 276.445C324.642 275.64 325.692 275.325 326.497 275.78C330.871 278.16 335.454 278.895 340.843 278.895C347.422 278.895 349.871 277.11 349.871 274.38C349.871 266.295 320.128 274.52 320.128 254.885C320.128 245.54 328.561 238.96 342.908 238.96C349.031 238.96 355.33 240.36 360.019 242.67C360.754 243.055 361.104 244 360.754 244.735L357.36 252.05C356.975 252.855 356.03 253.17 355.225 252.785C350.851 250.65 347.002 249.775 342.943 249.775C336.574 249.775 333.775 251.77 333.775 254.36C333.775 262.795 363.518 254.64 363.518 274.065C363.483 283.27 354.98 289.71 340.248 289.71ZM294.689 289.71C287.06 289.71 280.692 288.59 275.898 285.93C275.233 285.545 274.988 284.565 275.303 283.865L278.697 276.445C279.082 275.64 280.132 275.325 280.937 275.78C285.311 278.16 289.895 278.895 295.284 278.895C301.862 278.895 304.312 277.11 304.312 274.38C304.312 266.295 274.568 274.52 274.568 254.885C274.568 245.54 283.001 238.96 297.348 238.96C303.472 238.96 309.77 240.36 314.459 242.67C315.194 243.055 315.544 244 315.194 244.735L311.8 252.05C311.415 252.855 310.47 253.17 309.665 252.785C305.291 250.65 301.442 249.775 297.383 249.775C291.015 249.775 288.215 251.77 288.215 254.36C288.215 262.795 317.958 254.64 317.958 274.065C317.923 283.27 309.42 289.71 294.689 289.71ZM236.182 259.925H256.897C256.372 253.8 252.978 249.705 246.68 249.705C240.416 249.705 236.637 253.625 236.182 259.925ZM248.569 289.64C233.173 289.64 222.29 280.365 222.29 264.23C222.29 249.495 231.563 238.89 246.54 238.89C261.061 238.89 269.984 248.585 269.984 264.37C269.984 265.105 269.914 266.12 269.844 266.96C269.774 267.695 269.249 268.22 268.515 268.22H236.252C236.917 274.205 241.781 278.755 250.529 278.755C254.098 278.755 257.492 277.985 262.286 275.64C263.091 275.22 264.141 275.5 264.526 276.305L267.92 283.69C268.305 284.495 267.99 285.37 267.255 285.79C262.881 288.24 255.882 289.64 248.569 289.64ZM171.761 288.905C170.782 288.905 170.047 288.17 170.047 287.225V225.415C170.047 224.435 170.782 223.7 171.761 223.7H182.644C183.624 223.7 184.359 224.435 184.359 225.415V243.685C188.068 240.08 191.532 238.89 197.831 238.89C209.518 238.89 216.271 245.715 216.271 260.66V287.19C216.271 288.135 215.537 288.87 214.557 288.87H203.674C202.694 288.87 201.96 288.135 201.96 287.19V262.9C201.96 254.885 199.65 251.245 194.121 251.245C187.543 251.245 184.359 255.48 184.359 264.51V287.19C184.359 288.135 183.624 288.87 182.644 288.87H171.761V288.905ZM146.077 289.85C126.237 289.85 111.435 275.99 111.435 256.74C111.435 237.49 126.307 223.63 146.217 223.7C151.921 223.63 157.205 224.715 161.754 226.815C162.489 227.165 163.013 227.935 163.013 228.81V239.485C163.013 241.025 161.159 241.83 159.969 240.885C156.19 237.84 151.816 236.3 146.882 236.3C134.88 236.3 126.377 244.77 126.377 256.81C126.377 268.885 134.88 277.32 146.882 277.32C151.851 277.32 156.155 275.78 159.934 272.595C161.159 271.58 162.943 272.42 162.943 273.96V284.705C162.943 285.51 162.419 286.28 161.684 286.63C157.205 288.73 151.851 289.85 146.077 289.85Z" fill="#2E2C29"/>
<path d="M91.8048 309.1H101.708C134.67 308.505 135.615 302.065 135.615 301.61C135.615 299.51 135.475 297.445 135.16 295.52C117.594 291.04 104.997 275.325 104.997 257.02C104.997 247.29 107.936 238.505 114.27 231.155L107.691 226.815C112.38 223.42 115.424 217.89 115.424 211.66C115.424 203.82 110.596 197.065 103.737 194.3C101.568 193.425 86.311 243.685 86.311 243.685C86.2411 244.84 86.2411 246.345 86.2411 248.165C86.2411 253.17 98.4883 252.4 97.8234 256.81C96.8437 263.39 96.6337 268.43 90.965 284.25C87.1509 294.96 61.6416 284.25 59.822 289.5C58.5623 293.105 57.8975 297.2 57.8975 301.61C57.8975 302.065 58.8422 308.505 91.8048 309.1Z" fill="#5D9948"/>
<path d="M96.0386 283.48C98.1381 273.89 99.9927 263.67 101.147 257.545C102.547 249.915 90.9997 248.55 86.2408 247.85C86.0309 254.36 84.2113 264.965 68.7098 276.795C64.5457 279.98 61.4314 284.53 59.6118 290.06C63.8109 292.09 69.3746 293.315 77.9827 293.315C83.5114 293.315 93.7291 293.98 96.0386 283.48ZM104.157 243.615C105.976 238.855 105.766 235.635 105.766 235.635L98.1381 226.745C106.256 223.28 111.155 216.735 111.155 209.14C111.155 203.085 108.251 197.66 103.807 194.265C101.637 193.39 99.2579 192.865 96.7734 192.865C86.4508 192.865 78.0876 201.23 78.0876 211.59C78.0876 217.82 81.132 223.35 85.8209 226.745L72.3489 235.635C72.3489 238.61 73.0488 241.025 74.4485 243.615H104.157Z" fill="#81B64C"/>
<path d="M95.6886 196.715C106.466 198.395 90.7197 210.925 85.7508 210.33C81.0269 209.735 85.5759 195.14 95.6886 196.715Z" fill="#B2E068"/>
</svg>
