<svg width="535" height="502" viewBox="0 0 535 502" fill="none" xmlns="http://www.w3.org/2000/svg">
<rect x="17" width="501" height="501" rx="139" fill="white"/>
<path fill-rule="evenodd" clip-rule="evenodd" d="M52.209 275.43L67.6076 263.631C75.7847 274.311 84.4686 279.233 94.145 279.233C103.768 279.233 112.213 274.368 120.024 263.772L135.635 275.289C124.373 290.566 110.362 298.637 94.145 298.637C77.9817 298.637 63.841 290.623 52.209 275.43Z" fill="url(#paint0_linear_2003_57)"/>
<path fill-rule="evenodd" clip-rule="evenodd" d="M94.0959 224.148L66.6889 247.774L54.0273 233.074L94.1504 198.487L133.962 233.101L121.238 247.747L94.0959 224.148Z" fill="url(#paint1_linear_2003_57)"/>
<path d="M240.747 218.433H225.23V283.114H240.747V218.433Z" fill="black"/>
<path fill-rule="evenodd" clip-rule="evenodd" d="M193.87 283.399C184.722 283.399 177.099 280.433 170.916 274.502C164.733 268.486 161.684 260.775 161.684 251.37C161.684 241.88 164.818 234.085 171.001 227.984C177.269 221.798 184.891 218.748 193.954 218.748C205.134 218.748 215.044 223.578 220.803 231.119L210.724 241.711C205.896 236.542 200.645 233.915 194.971 233.915C190.143 233.915 186.162 235.525 182.859 238.83C179.64 242.134 178.031 246.286 178.031 251.285C178.031 256.115 179.64 260.182 182.859 263.487C186.162 266.707 190.143 268.317 194.886 268.317C201.069 268.317 206.489 265.605 210.978 260.267L221.482 270.35C218.602 274.163 214.705 277.298 209.877 279.755C205.05 282.213 199.714 283.399 193.87 283.399Z" fill="black"/>
<path fill-rule="evenodd" clip-rule="evenodd" d="M264.021 223.607C264.021 228.251 260.26 232.015 255.617 232.015C250.975 232.015 247.211 228.251 247.211 223.607C247.211 218.963 250.975 215.198 255.617 215.198C260.26 215.198 264.021 218.963 264.021 223.607ZM263.375 235.896H247.858V283.114H263.375V235.896Z" fill="black"/>
<path fill-rule="evenodd" clip-rule="evenodd" d="M293.37 283.484C286.002 283.484 280.073 281.196 275.415 276.62C270.841 272.045 268.553 266.198 268.553 258.996C268.553 251.794 270.841 245.947 275.499 241.372C280.158 236.796 286.171 234.508 293.624 234.508C303.366 234.508 311.919 239.253 315.9 248.15L303.957 254.42C301.586 250.438 298.284 248.404 293.964 248.404C290.83 248.404 288.288 249.421 286.256 251.455C284.308 253.488 283.291 256.03 283.291 258.996C283.291 265.181 287.78 269.757 293.795 269.757C298.113 269.757 302.094 267.384 303.789 263.741L315.731 270.859C311.665 278.654 303.281 283.484 293.37 283.484Z" fill="black"/>
<path fill-rule="evenodd" clip-rule="evenodd" d="M335.145 218.433H319.628V283.114H335.145V266.648L336.963 264.951L351.147 283.114H369.198L347.405 255.21L368.108 235.896H349.147L335.145 248.96V218.433Z" fill="black"/>
<path fill-rule="evenodd" clip-rule="evenodd" d="M371.997 258.672V218.433H388.162V257.771C388.162 264.804 392.258 268.193 398.183 268.193C404.021 268.193 408.204 264.634 408.204 257.771V218.433H424.368V258.672C424.368 277.144 411.405 284.092 398.183 284.092C385.047 284.092 371.997 277.144 371.997 258.672Z" fill="black"/>
<path fill-rule="evenodd" clip-rule="evenodd" d="M459.283 284.407C471.78 284.407 481.912 273.403 481.912 259.828C481.912 246.254 471.78 235.25 459.283 235.25C454.188 235.25 449.488 237.078 445.705 240.163V235.896H430.834V302.518H445.705V279.494C449.488 282.579 454.188 284.407 459.283 284.407ZM445.705 259.854V259.803C445.719 253.742 450.489 248.833 456.373 248.833C462.266 248.833 467.042 253.756 467.042 259.828C467.042 265.901 462.266 270.824 456.373 270.824C450.489 270.824 445.719 265.915 445.705 259.854Z" fill="black"/>
<defs>
<linearGradient id="paint0_linear_2003_57" x1="52.209" y1="304.94" x2="135.635" y2="304.94" gradientUnits="userSpaceOnUse">
<stop stop-color="#8930FD"/>
<stop offset="1" stop-color="#49CCF9"/>
</linearGradient>
<linearGradient id="paint1_linear_2003_57" x1="54.0273" y1="256.649" x2="133.962" y2="256.649" gradientUnits="userSpaceOnUse">
<stop stop-color="#FF02F0"/>
<stop offset="1" stop-color="#FFC800"/>
</linearGradient>
</defs>
</svg>
