<svg width="535" height="502" viewBox="0 0 535 502" fill="none" xmlns="http://www.w3.org/2000/svg">
<rect x="17" width="501" height="501" rx="139" fill="white"/>
<path d="M111.173 195.35H422.813M111.173 306.65H422.813M257.719 84.0498C226.468 134.128 209.901 191.971 209.901 251C209.901 310.028 226.468 367.872 257.719 417.95M276.275 84.0498C307.525 134.128 324.093 191.971 324.093 251C324.093 310.028 307.525 367.872 276.275 417.95M100.05 251C100.05 272.924 104.368 294.633 112.758 314.889C121.148 335.144 133.446 353.549 148.948 369.051C164.451 384.554 182.855 396.851 203.111 405.241C223.366 413.632 245.076 417.95 267 417.95C288.924 417.95 310.633 413.632 330.889 405.241C351.144 396.851 369.549 384.554 385.051 369.051C400.554 353.549 412.851 335.144 421.241 314.889C429.632 294.633 433.95 272.924 433.95 251C433.95 206.722 416.36 164.258 385.051 132.948C353.742 101.639 311.278 84.0498 267 84.0498C222.722 84.0498 180.258 101.639 148.948 132.948C117.639 164.258 100.05 206.722 100.05 251Z" stroke="black" stroke-width="37.1" stroke-linecap="round" stroke-linejoin="round"/>
</svg>
