<svg width="535" height="502" viewBox="0 0 535 502" fill="none" xmlns="http://www.w3.org/2000/svg">
<rect x="17" width="501" height="501" rx="139" fill="white"/>
<path fill-rule="evenodd" clip-rule="evenodd" d="M267.5 66C165.564 66 83 148.564 83 250.5C83 332.141 135.813 401.098 209.152 425.544C218.377 427.159 221.836 421.624 221.836 416.781C221.836 412.399 221.606 397.869 221.606 382.418C175.25 390.951 163.257 371.117 159.567 360.739C157.492 355.434 148.498 339.06 140.656 334.678C134.199 331.219 124.974 322.686 140.426 322.455C154.955 322.224 165.333 335.831 168.793 341.366C185.398 369.272 211.919 361.431 222.528 356.588C224.143 344.595 228.986 336.523 234.29 331.911C193.239 327.298 150.343 311.385 150.343 240.814C150.343 220.749 157.492 204.144 169.254 191.229C167.409 186.617 160.951 167.706 171.099 142.337C171.099 142.337 186.551 137.494 221.836 161.248C236.596 157.097 252.279 155.021 267.961 155.021C283.644 155.021 299.326 157.097 314.086 161.248C349.372 137.263 364.824 142.337 364.824 142.337C374.971 167.706 368.514 186.617 366.669 191.229C378.431 204.144 385.58 220.519 385.58 240.814C385.58 311.616 342.453 327.298 301.402 331.911C308.09 337.676 313.856 348.746 313.856 366.043C313.856 390.72 313.625 410.554 313.625 416.781C313.625 421.624 317.084 427.389 326.309 425.544C399.187 401.098 452 331.911 452 250.5C452 148.564 369.436 66 267.5 66Z" fill="#1B1F23"/>
</svg>
