<svg width="535" height="502" viewBox="0 0 535 502" fill="none" xmlns="http://www.w3.org/2000/svg">
<rect x="17" width="501" height="501" rx="139" fill="white"/>
<path d="M105.72 161.4C105.72 151.895 109.496 142.779 116.217 136.057C122.938 129.336 132.054 125.56 141.56 125.56H392.44C401.945 125.56 411.061 129.336 417.782 136.057C424.504 142.779 428.28 151.895 428.28 161.4M105.72 161.4V340.6C105.72 350.105 109.496 359.221 116.217 365.943C122.938 372.664 132.054 376.44 141.56 376.44H392.44C401.945 376.44 411.061 372.664 417.782 365.943C424.504 359.221 428.28 350.105 428.28 340.6V161.4M105.72 161.4L267 268.92L428.28 161.4" stroke="black" stroke-width="35.84" stroke-linecap="round" stroke-linejoin="round"/>
</svg>
