<svg width="535" height="502" viewBox="0 0 535 502" fill="none" xmlns="http://www.w3.org/2000/svg">
<rect x="17" width="501" height="501" rx="139" fill="white"/>
<path d="M333.102 269.936C315.59 269.936 298.794 276.893 286.411 289.277C274.027 301.66 267.07 318.456 267.07 335.969M267.07 335.969V354.835M267.07 335.969C267.07 318.456 260.113 301.66 247.73 289.277C235.346 276.893 218.551 269.936 201.038 269.936M267.07 335.969V147.305M267.07 354.835C267.07 372.348 274.027 389.144 286.411 401.527C298.794 413.911 315.59 420.868 333.102 420.868C350.615 420.868 367.411 413.911 379.794 401.527C392.178 389.144 399.135 372.348 399.135 354.835V320.876M267.07 354.835C267.07 372.348 260.113 389.144 247.73 401.527C235.346 413.911 218.551 420.868 201.038 420.868C183.525 420.868 166.729 413.911 154.346 401.527C141.962 389.144 135.005 372.348 135.005 354.835V320.876M370.835 326.536C388.348 326.536 405.144 319.579 417.527 307.195C429.911 294.812 436.868 278.016 436.868 260.503C436.868 242.99 429.911 226.195 417.527 213.811C405.144 201.428 388.348 194.471 370.835 194.471H361.402M399.135 200.131V147.305C399.135 129.792 392.178 112.996 379.794 100.613C367.411 88.2294 350.615 81.2725 333.102 81.2725C315.59 81.2725 298.794 88.2294 286.411 100.613C274.027 112.996 267.07 129.792 267.07 147.305M267.07 147.305C267.07 129.792 260.113 112.996 247.73 100.613C235.346 88.2294 218.551 81.2725 201.038 81.2725C183.525 81.2725 166.729 88.2294 154.346 100.613C141.962 112.996 135.005 129.792 135.005 147.305V200.131M163.305 326.536C145.792 326.536 128.996 319.579 116.613 307.195C104.229 294.812 97.2725 278.016 97.2725 260.503C97.2725 242.99 104.229 226.195 116.613 213.811C128.996 201.428 145.792 194.471 163.305 194.471H172.738" stroke="black" stroke-width="37.7328" stroke-linecap="round" stroke-linejoin="round"/>
</svg>
