<svg width="535" height="502" viewBox="0 0 535 502" fill="none" xmlns="http://www.w3.org/2000/svg">
<rect x="17" width="501" height="501" rx="139" fill="white"/>
<path d="M106.259 242.641V291.735" stroke="#8080FF" stroke-width="5.54221" stroke-linecap="round"/>
<path d="M106.258 267.188L85 279.462" stroke="#8080FF" stroke-width="5.54221" stroke-linecap="round"/>
<path d="M127.517 230.367L85 254.914" stroke="#4040C0" stroke-width="5.54221" stroke-linecap="round"/>
<path d="M106.258 242.641L85 230.367" stroke="#4040C0" stroke-width="5.54221" stroke-linecap="round"/>
<path d="M148.776 242.641L106.259 218.094" stroke="#8080FF" stroke-width="5.54221" stroke-linecap="round"/>
<path d="M127.518 230.368V205.82" stroke="#8080FF" stroke-width="5.54221" stroke-linecap="round"/>
<path d="M148.775 267.188V218.094" stroke="#4040C0" stroke-width="5.54221" stroke-linecap="round"/>
<path d="M148.775 242.641L170.034 230.367" stroke="#4040C0" stroke-width="5.54221" stroke-linecap="round"/>
<path d="M127.517 279.462L170.034 254.915" stroke="#8080FF" stroke-width="5.54221" stroke-linecap="round"/>
<path d="M148.775 267.188L170.034 279.462" stroke="#8080FF" stroke-width="5.54221" stroke-linecap="round"/>
<path d="M106.259 267.188L148.776 291.736" stroke="#4040C0" stroke-width="5.54221" stroke-linecap="round"/>
<path d="M127.518 279.462V304.009" stroke="#4040C0" stroke-width="5.54221" stroke-linecap="round"/>
<path d="M106.472 258.938L106.259 282.641" stroke="#8080FF" stroke-width="5.54221" stroke-linecap="round"/>
<path d="M252.835 218.727V282H245.42L210.942 232.321H210.324V282H202.662V218.727H210.077L244.679 268.53H245.297V218.727H252.835ZM267.178 282V234.545H274.469V282H267.178ZM270.886 226.636C269.464 226.636 268.239 226.152 267.209 225.184C266.2 224.216 265.695 223.053 265.695 221.693C265.695 220.334 266.2 219.17 267.209 218.202C268.239 217.234 269.464 216.75 270.886 216.75C272.307 216.75 273.522 217.234 274.531 218.202C275.561 219.17 276.076 220.334 276.076 221.693C276.076 223.053 275.561 224.216 274.531 225.184C273.522 226.152 272.307 226.636 270.886 226.636ZM293.261 234.545L304.631 253.947L316 234.545H324.403L309.079 258.273L324.403 282H316L304.631 263.587L293.261 282H284.858L299.934 258.273L284.858 234.545H293.261ZM389.182 250.364C389.182 257.037 387.977 262.804 385.567 267.665C383.158 272.526 379.852 276.274 375.65 278.911C371.448 281.547 366.649 282.865 361.253 282.865C355.857 282.865 351.058 281.547 346.856 278.911C342.654 276.274 339.349 272.526 336.939 267.665C334.529 262.804 333.324 257.037 333.324 250.364C333.324 243.69 334.529 237.923 336.939 233.062C339.349 228.202 342.654 224.453 346.856 221.817C351.058 219.18 355.857 217.862 361.253 217.862C366.649 217.862 371.448 219.18 375.65 221.817C379.852 224.453 383.158 228.202 385.567 233.062C387.977 237.923 389.182 243.69 389.182 250.364ZM381.767 250.364C381.767 244.885 380.851 240.261 379.018 236.492C377.205 232.723 374.744 229.87 371.634 227.934C368.544 225.998 365.084 225.03 361.253 225.03C357.422 225.03 353.952 225.998 350.842 227.934C347.752 229.87 345.291 232.723 343.458 236.492C341.645 240.261 340.739 244.885 340.739 250.364C340.739 255.842 341.645 260.466 343.458 264.235C345.291 268.005 347.752 270.857 350.842 272.793C353.952 274.729 357.422 275.697 361.253 275.697C365.084 275.697 368.544 274.729 371.634 272.793C374.744 270.857 377.205 268.005 379.018 264.235C380.851 260.466 381.767 255.842 381.767 250.364ZM436.668 234.545C436.297 231.415 434.793 228.984 432.157 227.254C429.521 225.524 426.287 224.659 422.456 224.659C419.655 224.659 417.204 225.112 415.103 226.018C413.023 226.925 411.396 228.171 410.222 229.757C409.068 231.343 408.491 233.145 408.491 235.163C408.491 236.852 408.893 238.304 409.696 239.52C410.52 240.714 411.571 241.713 412.848 242.516C414.125 243.299 415.463 243.948 416.864 244.463C418.264 244.957 419.552 245.359 420.726 245.668L427.152 247.398C428.8 247.83 430.633 248.428 432.651 249.19C434.69 249.952 436.637 250.992 438.49 252.31C440.365 253.608 441.909 255.276 443.125 257.315C444.34 259.354 444.947 261.857 444.947 264.822C444.947 268.241 444.051 271.331 442.26 274.091C440.488 276.851 437.893 279.044 434.474 280.672C431.076 282.299 426.946 283.112 422.085 283.112C417.554 283.112 413.63 282.381 410.314 280.919C407.019 279.456 404.424 277.417 402.529 274.801C400.654 272.186 399.594 269.148 399.347 265.688H407.256C407.462 268.077 408.265 270.054 409.665 271.619C411.087 273.164 412.878 274.317 415.041 275.08C417.224 275.821 419.572 276.192 422.085 276.192C425.01 276.192 427.636 275.718 429.963 274.771C432.291 273.803 434.134 272.464 435.494 270.754C436.853 269.024 437.533 267.006 437.533 264.699C437.533 262.598 436.946 260.888 435.772 259.57C434.598 258.252 433.053 257.181 431.137 256.357C429.222 255.533 427.152 254.812 424.927 254.195L417.142 251.97C412.199 250.549 408.285 248.52 405.402 245.884C402.518 243.248 401.077 239.798 401.077 235.534C401.077 231.991 402.034 228.902 403.95 226.266C405.886 223.609 408.481 221.549 411.735 220.087C415.01 218.604 418.666 217.862 422.703 217.862C426.781 217.862 430.406 218.593 433.578 220.056C436.75 221.498 439.263 223.475 441.116 225.988C442.991 228.5 443.979 231.353 444.082 234.545H436.668Z" fill="black"/>
</svg>
