<svg width="535" height="502" viewBox="0 0 535 502" fill="none" xmlns="http://www.w3.org/2000/svg">
<rect x="17" width="501" height="501" rx="139" fill="white"/>
<path d="M310.36 417.249V427.362C310.36 441.677 298.755 453.282 284.44 453.282C279.989 453.282 275.612 452.136 271.732 449.953L116.212 362.473C108.051 357.882 103 349.246 103 339.882V162.841C103 153.476 108.051 144.84 116.212 140.249L271.732 52.7694C284.209 45.7512 300.013 50.1763 307.031 62.6531C309.214 66.5328 310.36 70.9092 310.36 75.3606V85.4734L328.832 79.9318C342.543 75.8184 356.993 83.5991 361.107 97.3106C361.832 99.7269 362.2 102.236 362.2 104.759V115.281L384.905 112.443C399.11 110.668 412.064 120.743 413.84 134.948C413.973 136.015 414.04 137.088 414.04 138.163V364.56C414.04 378.875 402.435 390.48 388.12 390.48C387.045 390.48 385.971 390.413 384.905 390.28L362.2 387.441V397.964C362.2 412.279 350.595 423.884 336.28 423.884C333.757 423.884 331.248 423.516 328.832 422.791L310.36 417.249ZM310.36 390.188L336.28 397.964V104.759L310.36 112.535V390.188ZM362.2 141.403V361.32L388.12 364.56V138.163L362.2 141.403ZM128.92 162.841V339.882L284.44 427.362V75.3606L128.92 162.841ZM154.84 180.081L180.76 167.121V335.601L154.84 322.641V180.081Z" fill="black"/>
</svg>
