<svg width="49" height="22" viewBox="0 0 49 22" fill="none" xmlns="http://www.w3.org/2000/svg">
<path d="M9.012 16V14.176C8.948 14.368 8.764 14.632 8.46 14.968C8.164 15.304 7.756 15.608 7.236 15.88C6.724 16.152 6.116 16.288 5.412 16.288C4.492 16.288 3.664 16.068 2.928 15.628C2.192 15.188 1.612 14.576 1.188 13.792C0.764 13.008 0.552 12.104 0.552 11.08C0.552 10.056 0.764 9.152 1.188 8.368C1.612 7.584 2.192 6.972 2.928 6.532C3.664 6.084 4.492 5.86 5.412 5.86C6.1 5.86 6.696 5.98 7.2 6.22C7.704 6.46 8.108 6.736 8.412 7.048C8.724 7.36 8.916 7.632 8.988 7.864V6.148H11.532V16H9.012ZM3.084 11.08C3.084 11.712 3.224 12.264 3.504 12.736C3.784 13.208 4.148 13.572 4.596 13.828C5.052 14.084 5.54 14.212 6.06 14.212C6.62 14.212 7.116 14.08 7.548 13.816C7.988 13.552 8.332 13.188 8.58 12.724C8.836 12.252 8.964 11.704 8.964 11.08C8.964 10.456 8.836 9.912 8.58 9.448C8.332 8.976 7.988 8.608 7.548 8.344C7.116 8.072 6.62 7.936 6.06 7.936C5.54 7.936 5.052 8.068 4.596 8.332C4.148 8.588 3.784 8.952 3.504 9.424C3.224 9.896 3.084 10.448 3.084 11.08ZM14.3644 16V6.148H16.9204V16H14.3644ZM15.6724 3.196C15.2404 3.196 14.8684 3.04 14.5564 2.728C14.2524 2.416 14.1004 2.044 14.1004 1.612C14.1004 1.18 14.2524 0.808 14.5564 0.495999C14.8684 0.176 15.2404 0.0159998 15.6724 0.0159998C15.9604 0.0159998 16.2244 0.0919995 16.4644 0.243999C16.7124 0.387999 16.9084 0.579999 17.0524 0.819999C17.2044 1.052 17.2804 1.316 17.2804 1.612C17.2804 2.044 17.1244 2.416 16.8124 2.728C16.5004 3.04 16.1204 3.196 15.6724 3.196Z" fill="#7F22FE"/>
<path d="M24.7626 21.268C24.0106 21.268 23.3106 21.192 22.6626 21.04C22.0226 20.896 21.4506 20.676 20.9466 20.38C20.4426 20.092 20.0346 19.736 19.7226 19.312L21.3186 17.728C21.4866 17.936 21.7026 18.152 21.9666 18.376C22.2306 18.608 22.5786 18.8 23.0106 18.952C23.4426 19.112 23.9906 19.192 24.6546 19.192C25.3026 19.192 25.8546 19.06 26.3106 18.796C26.7746 18.532 27.1266 18.168 27.3666 17.704C27.6146 17.248 27.7386 16.72 27.7386 16.12V15.82H30.2586V16.276C30.2586 17.364 30.0146 18.276 29.5266 19.012C29.0386 19.756 28.3786 20.316 27.5466 20.692C26.7146 21.076 25.7866 21.268 24.7626 21.268ZM27.7386 16V14.176C27.6746 14.368 27.4906 14.632 27.1866 14.968C26.8906 15.304 26.4826 15.608 25.9626 15.88C25.4506 16.152 24.8426 16.288 24.1386 16.288C23.2186 16.288 22.3906 16.068 21.6546 15.628C20.9186 15.188 20.3386 14.576 19.9146 13.792C19.4906 13.008 19.2786 12.104 19.2786 11.08C19.2786 10.056 19.4906 9.152 19.9146 8.368C20.3386 7.584 20.9186 6.972 21.6546 6.532C22.3906 6.084 23.2186 5.86 24.1386 5.86C24.8266 5.86 25.4226 5.98 25.9266 6.22C26.4306 6.46 26.8346 6.736 27.1386 7.048C27.4506 7.36 27.6426 7.632 27.7146 7.864V6.148H30.2586V16H27.7386ZM21.8106 11.08C21.8106 11.712 21.9506 12.264 22.2306 12.736C22.5106 13.208 22.8746 13.572 23.3226 13.828C23.7786 14.084 24.2666 14.212 24.7866 14.212C25.3466 14.212 25.8426 14.08 26.2746 13.816C26.7146 13.552 27.0586 13.188 27.3066 12.724C27.5626 12.252 27.6906 11.704 27.6906 11.08C27.6906 10.456 27.5626 9.912 27.3066 9.448C27.0586 8.976 26.7146 8.608 26.2746 8.344C25.8426 8.072 25.3466 7.936 24.7866 7.936C24.2666 7.936 23.7786 8.068 23.3226 8.332C22.8746 8.588 22.5106 8.952 22.2306 9.424C21.9506 9.896 21.8106 10.448 21.8106 11.08ZM33.1847 16V6.148H35.7407V16H33.1847ZM34.4927 3.196C34.0607 3.196 33.6887 3.04 33.3767 2.728C33.0727 2.416 32.9207 2.044 32.9207 1.612C32.9207 1.18 33.0727 0.808 33.3767 0.495999C33.6887 0.176 34.0607 0.0159998 34.4927 0.0159998C34.7807 0.0159998 35.0447 0.0919995 35.2847 0.243999C35.5327 0.387999 35.7287 0.579999 35.8727 0.819999C36.0247 1.052 36.1007 1.316 36.1007 1.612C36.1007 2.044 35.9447 2.416 35.6327 2.728C35.3207 3.04 34.9407 3.196 34.4927 3.196ZM44.6269 5.86C45.2909 5.86 45.9349 5.996 46.5589 6.268C47.1829 6.54 47.6949 6.976 48.0949 7.576C48.5029 8.168 48.7069 8.94 48.7069 9.892V16H46.1269V10.36C46.1269 9.472 45.9149 8.82 45.4909 8.404C45.0749 7.98 44.5349 7.768 43.8709 7.768C43.4309 7.768 43.0109 7.892 42.6109 8.14C42.2109 8.388 41.8829 8.724 41.6269 9.148C41.3789 9.572 41.2549 10.06 41.2549 10.612V16H38.6869V6.148H41.2549V7.804C41.3269 7.532 41.5189 7.248 41.8309 6.952C42.1509 6.648 42.5549 6.392 43.0429 6.184C43.5309 5.968 44.0589 5.86 44.6269 5.86Z" fill="#FAFAFA"/>
</svg>
